<svg width="71" height="71" viewBox="0 0 71 71" fill="none" xmlns="http://www.w3.org/2000/svg">
<path d="M54.7292 0H16.2708C7.2847 0 0 7.2847 0 16.2708V54.7292C0 63.7153 7.2847 71 16.2708 71H54.7292C63.7153 71 71 63.7153 71 54.7292V16.2708C71 7.2847 63.7153 0 54.7292 0Z" fill="#111111"/>
<path d="M20.7083 17.75H50.2917C52.7471 17.75 54.7292 19.7321 54.7292 22.1875C54.7292 24.6429 52.7471 26.625 50.2917 26.625H20.7083C18.2529 26.625 16.2708 24.6429 16.2708 22.1875C16.2708 19.7321 18.2529 17.75 20.7083 17.75Z" fill="white"/>
<path d="M20.7083 31.0625H38.4583C40.9138 31.0625 42.8958 33.0446 42.8958 35.5C42.8958 37.9554 40.9138 39.9375 38.4583 39.9375H20.7083C18.2529 39.9375 16.2708 37.9554 16.2708 35.5C16.2708 33.0446 18.2529 31.0625 20.7083 31.0625Z" fill="white"/>
<path d="M20.7083 44.375H28.1042C30.5596 44.375 32.5417 46.3571 32.5417 48.8125C32.5417 51.2679 30.5596 53.25 28.1042 53.25H20.7083C18.2529 53.25 16.2708 51.2679 16.2708 48.8125C16.2708 46.3571 18.2529 44.375 20.7083 44.375Z" fill="white"/>
</svg>
