<svg width="198" height="60" viewBox="0 0 198 60" fill="none" xmlns="http://www.w3.org/2000/svg">
<path d="M46.0232 0H13.6826C6.1259 0 0 6.1259 0 13.6826V46.0232C0 53.5799 6.1259 59.7058 13.6826 59.7058H46.0232C53.5799 59.7058 59.7058 53.5799 59.7058 46.0232V13.6826C59.7058 6.1259 53.5799 0 46.0232 0Z" fill="#111111"/>
<path d="M17.4142 14.9264H42.2916C44.3564 14.9264 46.0232 16.5932 46.0232 18.658C46.0232 20.7229 44.3564 22.3897 42.2916 22.3897H17.4142C15.3494 22.3897 13.6826 20.7229 13.6826 18.658C13.6826 16.5932 15.3494 14.9264 17.4142 14.9264Z" fill="white"/>
<path d="M17.4142 26.1213H32.3406C34.4055 26.1213 36.0723 27.7881 36.0723 29.8529C36.0723 31.9177 34.4055 33.5845 32.3406 33.5845H17.4142C15.3494 33.5845 13.6826 31.9177 13.6826 29.8529C13.6826 27.7881 15.3494 26.1213 17.4142 26.1213Z" fill="white"/>
<path d="M17.4142 37.3161H23.6336C25.6984 37.3161 27.3652 38.9829 27.3652 41.0477C27.3652 43.1126 25.6984 44.7793 23.6336 44.7793H17.4142C15.3494 44.7793 13.6826 43.1126 13.6826 41.0477C13.6826 38.9829 15.3494 37.3161 17.4142 37.3161Z" fill="white"/>
<path d="M97.379 21.69H84.8116V27.455H95.8145V31.8086H84.8116V42.3183H79.6077V17.2854H97.379V21.69Z" fill="#111111"/>
<path d="M100.61 17.2514H105.457V42.3183H100.61V17.2514Z" fill="#111111"/>
<path d="M122.089 39.6994C122.043 39.7561 121.93 39.9261 121.749 40.2096C121.567 40.493 121.352 40.7424 121.102 40.9578C120.343 41.6381 119.606 42.1029 118.892 42.3523C118.189 42.6018 117.361 42.7265 116.409 42.7265C113.665 42.7265 111.817 41.7401 110.865 39.7674C110.332 38.679 110.066 37.0748 110.066 34.9547V23.7817H115.031V34.9547C115.031 36.0091 115.156 36.8027 115.405 37.3356C115.848 38.2766 116.715 38.7471 118.007 38.7471C119.663 38.7471 120.796 38.0781 121.409 36.7403C121.726 36.0147 121.885 35.0567 121.885 33.8663V23.7817H126.799V42.3183H122.089V39.6994Z" fill="#111111"/>
<path d="M148.006 42.3183H141.969L138.772 36.7573L135.558 42.3183H129.674L136 32.931L129.946 23.8157H135.881L138.976 29.1897L142.003 23.8157H147.768L141.68 32.846L148.006 42.3183Z" fill="#111111"/>
<path d="M161.987 16.6562C166.397 16.6562 169.662 18.0734 171.782 20.9077C173.437 23.1185 174.265 25.9472 174.265 29.3937C174.265 33.1237 173.318 36.2245 171.425 38.696C169.203 41.5984 166.034 43.0496 161.919 43.0496C158.075 43.0496 155.054 41.7798 152.854 39.2402C150.893 36.7914 149.912 33.6963 149.912 29.9549C149.912 26.5764 150.751 23.6854 152.429 21.2818C154.583 18.1981 157.769 16.6562 161.987 16.6562ZM162.327 40.0225C165.309 40.0225 167.463 38.9568 168.789 36.8254C170.127 34.6826 170.796 32.2224 170.796 29.4447C170.796 26.5084 170.025 24.1445 168.483 22.3532C166.952 20.5619 164.855 19.6663 162.191 19.6663C159.606 19.6663 157.497 20.5563 155.865 22.3362C154.232 24.1049 153.416 26.7181 153.416 30.176C153.416 32.9423 154.113 35.2778 155.507 37.1825C156.913 39.0758 159.186 40.0225 162.327 40.0225Z" fill="#111111"/>
<path d="M180.523 34.2575C180.603 35.6746 180.937 36.8254 181.527 37.7097C182.649 39.3649 184.627 40.1926 187.462 40.1926C188.732 40.1926 189.888 40.0112 190.931 39.6484C192.949 38.9455 193.958 37.687 193.958 35.873C193.958 34.5125 193.533 33.5432 192.683 32.965C191.821 32.3981 190.472 31.905 188.635 31.4855L185.251 30.7202C183.04 30.2214 181.476 29.6715 180.557 29.0706C178.97 28.0276 178.176 26.4687 178.176 24.394C178.176 22.1492 178.953 20.3068 180.506 18.867C182.06 17.4271 184.259 16.7072 187.105 16.7072C189.724 16.7072 191.946 17.3421 193.771 18.6119C195.608 19.8703 196.526 21.8884 196.526 24.666H193.346C193.176 23.3282 192.813 22.3022 192.257 21.588C191.226 20.2842 189.474 19.6323 187.003 19.6323C185.007 19.6323 183.573 20.0517 182.7 20.8907C181.827 21.7297 181.391 22.7047 181.391 23.8157C181.391 25.0402 181.901 25.9358 182.921 26.5027C183.59 26.8655 185.104 27.319 187.462 27.8632L190.965 28.6625C192.654 29.0479 193.958 29.5751 194.876 30.244C196.464 31.4118 197.257 33.1067 197.257 35.3288C197.257 38.0952 196.248 40.0735 194.23 41.2639C192.223 42.4544 189.888 43.0496 187.224 43.0496C184.117 43.0496 181.685 42.256 179.928 40.6687C178.171 39.0928 177.309 36.9557 177.343 34.2575H180.523Z" fill="#111111"/>
</svg>
